<svg xmlns="http://www.w3.org/2000/svg" xmlns:xlink="http://www.w3.org/1999/xlink" width="102" height="84" viewBox="0 0 102 84">
  <defs>
    <clipPath id="clip-path">
      <rect id="Rectangle_63" data-name="Rectangle 63" width="102" height="84" transform="translate(585 759)" fill="#fff"/>
    </clipPath>
  </defs>
  <g id="Customer-icon" transform="translate(-585 -647)">
    <g id="Mask_Group_4" data-name="Mask Group 4" transform="translate(0 -112)" clip-path="url(#clip-path)">
      <circle id="Ellipse_2" data-name="Ellipse 2" cx="39" cy="39" r="39" transform="translate(585 760)" fill="#fff"/>
      <g id="Group_16" data-name="Group 16" transform="translate(-5.262 458.575)">
        <g id="Group_18" data-name="Group 18" transform="translate(599.09 327.106)">
          <path id="Path_42" data-name="Path 42" d="M597.981,362.879l-.078,0a1.718,1.718,0,0,1-1.64-1.791,59.314,59.314,0,0,1,1.338-9.024,1.72,1.72,0,0,1,.563-.944,16.865,16.865,0,0,1,6.908-3.332,1.725,1.725,0,0,1,1.491.416c.022.02,2.537,2.26,5.091,2.26h.313a1.718,1.718,0,0,1,0,3.436h-.313A11.826,11.826,0,0,1,605,351.351a13.48,13.48,0,0,0-4.163,2.027,56.006,56.006,0,0,0-1.139,7.86A1.718,1.718,0,0,1,597.981,362.879Z" transform="translate(-596.262 -328.98)" fill="#1763c4"/>
          <path id="Path_43" data-name="Path 43" d="M617.788,353.9h-.161a1.718,1.718,0,1,1,0-3.436h.161c2.544,0,5.089-2.24,5.114-2.264a1.718,1.718,0,0,1,1.485-.412,17.548,17.548,0,0,1,5.06,2,1.718,1.718,0,0,1-1.76,2.952,14.36,14.36,0,0,0-3.225-1.388A11.9,11.9,0,0,1,617.788,353.9Z" transform="translate(-602.407 -328.979)" fill="#1763c4"/>
          <path id="Path_44" data-name="Path 44" d="M614.967,340.5h-.162a8.443,8.443,0,0,1-8.433-8.434v-3.2a8.443,8.443,0,0,1,8.433-8.433h.162a8.444,8.444,0,0,1,8.434,8.433v3.2A8.444,8.444,0,0,1,614.967,340.5Zm-.162-16.628a5,5,0,0,0-5,5v3.2a5,5,0,0,0,5,5h.162a5,5,0,0,0,5-5v-3.2a5,5,0,0,0-5-5Z" transform="translate(-599.424 -320.434)" fill="#1763c4"/>
          <path id="Path_45" data-name="Path 45" d="M613.375,369.436H598.256a1.718,1.718,0,1,1,0-3.436h15.119a1.718,1.718,0,1,1,0,3.436Z" transform="translate(-596.348 -334.687)" fill="#1763c4"/>
          <path id="Path_46" data-name="Path 46" d="M614.818,359.075a1.393,1.393,0,0,1-1-.449l-7.573-8.047a1.376,1.376,0,0,1,2-1.891l6.534,6.935,6.034-6.9a1.374,1.374,0,1,1,2.069,1.808l-7.03,8.055a1.366,1.366,0,0,1-1.009.487Z" transform="translate(-599.267 -329.136)" fill="#1763c4"/>
        </g>
        <g id="Group_17" data-name="Group 17" transform="translate(663.873 327.106)">
          <path id="Path_47" data-name="Path 47" d="M697.427,362.879a1.719,1.719,0,0,1-1.715-1.642,55.64,55.64,0,0,0-1.139-7.859,13.555,13.555,0,0,0-4.163-2.027,11.828,11.828,0,0,1-6.656,2.547h-.313a1.718,1.718,0,0,1,0-3.436h.313c2.555,0,5.07-2.24,5.1-2.263a1.727,1.727,0,0,1,1.487-.413,16.857,16.857,0,0,1,6.908,3.332,1.714,1.714,0,0,1,.562.943,59.176,59.176,0,0,1,1.339,9.026,1.719,1.719,0,0,1-1.641,1.791Z" transform="translate(-671.27 -328.979)" fill="#1763c4"/>
          <path id="Path_48" data-name="Path 48" d="M679.169,353.9h-.16a11.906,11.906,0,0,1-6.674-2.55,14.351,14.351,0,0,0-3.225,1.388,1.718,1.718,0,0,1-1.759-2.952,17.526,17.526,0,0,1,5.061-2,1.719,1.719,0,0,1,1.484.412c.022.02,2.556,2.264,5.114,2.264h.16a1.718,1.718,0,0,1,0,3.436Z" transform="translate(-666.512 -328.979)" fill="#1763c4"/>
          <path id="Path_49" data-name="Path 49" d="M680.784,340.5h-.163a8.443,8.443,0,0,1-8.433-8.434v-3.2a8.443,8.443,0,0,1,8.433-8.433h.163a8.443,8.443,0,0,1,8.433,8.433v3.2A8.443,8.443,0,0,1,680.784,340.5Zm-.163-16.628a5,5,0,0,0-5,5v3.2a5,5,0,0,0,5,5h.163a5,5,0,0,0,5-5v-3.2a5,5,0,0,0-5-5Z" transform="translate(-668.287 -320.434)" fill="#1763c4"/>
          <path id="Path_50" data-name="Path 50" d="M696.062,369.436H680.256a1.718,1.718,0,1,1,0-3.436h15.806a1.718,1.718,0,1,1,0,3.436Z" transform="translate(-670.273 -334.687)" fill="#1763c4"/>
          <path id="Path_51" data-name="Path 51" d="M680.511,359.075h-.025a1.364,1.364,0,0,1-1.016-.495l-6.917-8.047a1.376,1.376,0,0,1,2.083-1.8l5.914,6.871,6.407-6.91a1.374,1.374,0,1,1,2.016,1.867l-7.453,8.055A1.39,1.39,0,0,1,680.511,359.075Z" transform="translate(-668.297 -329.136)" fill="#1763c4"/>
        </g>
        <g id="Group_19" data-name="Group 19" transform="translate(620.768 321.086)">
          <path id="Path_52" data-name="Path 52" d="M626.739,378.251h-.1a2.267,2.267,0,0,1-2.164-2.362,94.014,94.014,0,0,1,2.125-14.332,2.263,2.263,0,0,1,.741-1.244,26.334,26.334,0,0,1,10.814-5.213,2.274,2.274,0,0,1,1.965.548c.037.034,4.182,3.733,8.451,3.733h.5a2.266,2.266,0,0,1,0,4.532h-.5c-4.588,0-8.715-2.719-10.532-4.116a22.033,22.033,0,0,0-7.174,3.49,89.7,89.7,0,0,0-1.862,12.8A2.267,2.267,0,0,1,626.739,378.251Z" transform="translate(-624.471 -324.573)" fill="#1763c4"/>
          <path id="Path_53" data-name="Path 53" d="M672.73,378.251a2.266,2.266,0,0,1-2.26-2.14,96.324,96.324,0,0,0-1.924-12.824,21.82,21.82,0,0,0-7.206-3.495c-1.819,1.393-5.967,4.12-10.561,4.12h-.258a2.266,2.266,0,0,1,0-4.532h.258c4.272,0,8.447-3.7,8.488-3.741a2.274,2.274,0,0,1,1.953-.54,26.365,26.365,0,0,1,10.848,5.213,2.264,2.264,0,0,1,.741,1.244,100.25,100.25,0,0,1,2.184,14.306,2.266,2.266,0,0,1-2.137,2.386C672.814,378.251,672.771,378.251,672.73,378.251Z" transform="translate(-626.697 -324.573)" fill="#1763c4"/>
          <path id="Path_54" data-name="Path 54" d="M649.957,353.011H649.7a13,13,0,0,1-12.989-12.988v-5.611A13,13,0,0,1,649.7,321.424h.258a13,13,0,0,1,12.989,12.988v5.611A13,13,0,0,1,649.957,353.011Zm-.258-27.055a8.466,8.466,0,0,0-8.457,8.456v5.611a8.466,8.466,0,0,0,8.457,8.456h.258a8.466,8.466,0,0,0,8.457-8.456v-5.611a8.466,8.466,0,0,0-8.457-8.456Z" transform="translate(-625.617 -321.424)" fill="#1763c4"/>
          <path id="Path_55" data-name="Path 55" d="M670.4,381.532H627.8a2.266,2.266,0,1,1,0-4.532h42.6a2.266,2.266,0,1,1,0,4.532Z" transform="translate(-624.571 -326.627)" fill="#1763c4"/>
          <path id="Path_56" data-name="Path 56" d="M650.3,373.178a1.729,1.729,0,0,1-1.4-.554l-11.789-14.15a1.783,1.783,0,0,1,.237-2.527,1.815,1.815,0,0,1,2.553.25l10.342,12.462,9.561-12.4a1.813,1.813,0,0,1,2.871,2.215l-10.944,14.1a1.694,1.694,0,0,1-1.4.606Z" transform="translate(-625.615 -324.617)" fill="#1763c4"/>
        </g>
      </g>
    </g>
  </g>
</svg>
