<svg xmlns="http://www.w3.org/2000/svg" xmlns:xlink="http://www.w3.org/1999/xlink" width="102" height="84" viewBox="0 0 102 84">
  <defs>
    <clipPath id="clip-path">
      <rect id="Rectangle_62" data-name="Rectangle 62" width="102" height="84" transform="translate(1005 759)" fill="#fff"/>
    </clipPath>
  </defs>
  <g id="Innovative-icon" transform="translate(-1005 -647)">
    <g id="Mask_Group_3" data-name="Mask Group 3" transform="translate(0 -112)" clip-path="url(#clip-path)">
      <circle id="Ellipse_3" data-name="Ellipse 3" cx="39" cy="39" r="39" transform="translate(1005 760)" fill="#fff"/>
      <g id="Group_21" data-name="Group 21" transform="translate(972.179 466.361)">
        <g id="Group_22" data-name="Group 22" transform="translate(76.466 305)">
          <path id="Union_2" data-name="Union 2" d="M8.718,70.322a8.715,8.715,0,0,1-7.5-4.291L5.06,64.269a4.527,4.527,0,0,0,3.658,1.867h27.77A4.538,4.538,0,0,0,41.021,61.6V56.09H15.212A4.078,4.078,0,0,0,9.483,53.2l2.8-1.284L12.3,51.9H42.7a2.1,2.1,0,0,1,.422.043A2.1,2.1,0,0,0,42.7,51.9H41.021v-36H4.186V28.471L0,30.379V8.717A8.728,8.728,0,0,1,8.718,0h27.77a8.728,8.728,0,0,1,8.719,8.717V61.6a8.728,8.728,0,0,1-8.719,8.717Zm34.3-14.256A2.092,2.092,0,0,0,44.788,54h0A2.093,2.093,0,0,1,43.014,56.066ZM41.021,11.72v-3a4.538,4.538,0,0,0-4.533-4.532H8.718A4.537,4.537,0,0,0,4.186,8.717v3Z" transform="translate(0 0)" fill="#1763c4" stroke="rgba(0,0,0,0)" stroke-miterlimit="10" stroke-width="1"/>
          <path id="Path_68" data-name="Path 68" d="M110.734,378.874h-3.927a1.674,1.674,0,1,1,0-3.349h3.927a1.674,1.674,0,0,1,0,3.349Z" transform="translate(-85.799 -316.484)" fill="#1763c4"/>
          <path id="Path_69" data-name="Path 69" d="M111.276,314.5a2.22,2.22,0,1,1-2.219-2.221A2.221,2.221,0,0,1,111.276,314.5Z" transform="translate(-86.076 -306.186)" fill="#1763c4"/>
        </g>
        <path id="Union_1" data-name="Union 1" d="M17.819,50.759c-6.967,0-12.973-4.023-16.064-10.76A18.671,18.671,0,0,1,11.144,15.02L42.845.564A6.131,6.131,0,0,1,45.424,0a6.2,6.2,0,0,1,2.589,11.839l-5.873,2.7a6.19,6.19,0,0,1,1.327,6.433,6.209,6.209,0,0,1-.58,1.175A6.193,6.193,0,0,1,43.9,31.2a6.2,6.2,0,0,1-1.467,10.325l-15.87,7.285a24.127,24.127,0,0,1-2.84,1,19.348,19.348,0,0,1-5.9.946ZM44.586,4.37S13.948,18.339,12.89,18.825A14.529,14.529,0,0,0,5.558,38.254c2.427,5.287,6.9,8.32,12.261,8.32a15.22,15.22,0,0,0,4.634-.75,22.121,22.121,0,0,0,2.361-.817l15.87-7.285a2.019,2.019,0,0,0,.99-2.673,2.056,2.056,0,0,0-2.626-1.012L34.334,36.2A2.093,2.093,0,0,1,32.588,32.4l7.528-3.456a2.019,2.019,0,0,0,.93-2.644,2.056,2.056,0,0,0-2.614-1.017l-7.526,3.455a2.093,2.093,0,0,1-1.746-3.805l4.279-1.964.04-.019,5.016-2.3a2.015,2.015,0,0,0,.992-2.672,2.056,2.056,0,0,0-2.672-.991h0l-.054.024-9.279,4.259a2.074,2.074,0,0,1-.871.192,2.093,2.093,0,0,1-.875-4l9.333-4.284,11.2-5.143a2.016,2.016,0,0,0,.991-2.673,2.023,2.023,0,0,0-1.835-1.174A2,2,0,0,0,44.586,4.37Z" transform="translate(47.821 326.04)" fill="#1763c4" stroke="rgba(0,0,0,0)" stroke-miterlimit="10" stroke-width="1"/>
      </g>
    </g>
  </g>
</svg>
