<svg width="25" height="25" viewBox="0 0 25 25" fill="none" xmlns="http://www.w3.org/2000/svg">
<path d="M16.6667 12.5C16.6667 11.3498 16.2598 10.3678 15.446 9.55404C14.6322 8.74023 13.6502 8.33333 12.5 8.33333C11.3498 8.33333 10.3678 8.74023 9.55404 9.55404C8.74023 10.3678 8.33333 11.3498 8.33333 12.5C8.33333 13.6502 8.74023 14.6322 9.55404 15.446C10.3678 16.2598 11.3498 16.6667 12.5 16.6667C13.6502 16.6667 14.6322 16.2598 15.446 15.446C16.2598 14.6322 16.6667 13.6502 16.6667 12.5ZM18.9128 12.5C18.9128 14.2795 18.2888 15.7932 17.041 17.041C15.7932 18.2888 14.2795 18.9128 12.5 18.9128C10.7205 18.9128 9.20681 18.2888 7.95898 17.041C6.71115 15.7932 6.08724 14.2795 6.08724 12.5C6.08724 10.7205 6.71115 9.20681 7.95898 7.95898C9.20681 6.71115 10.7205 6.08724 12.5 6.08724C14.2795 6.08724 15.7932 6.71115 17.041 7.95898C18.2888 9.20681 18.9128 10.7205 18.9128 12.5ZM20.6706 5.82682C20.6706 6.23915 20.5241 6.5918 20.2311 6.88477C19.9382 7.17773 19.5855 7.32422 19.1732 7.32422C18.7608 7.32422 18.4082 7.17773 18.1152 6.88477C17.8223 6.5918 17.6758 6.23915 17.6758 5.82682C17.6758 5.4145 17.8223 5.06185 18.1152 4.76888C18.4082 4.47591 18.7608 4.32943 19.1732 4.32943C19.5855 4.32943 19.9382 4.47591 20.2311 4.76888C20.5241 5.06185 20.6706 5.4145 20.6706 5.82682ZM12.5 2.24609C12.424 2.24609 12.009 2.24338 11.2549 2.23796C10.5008 2.23253 9.92839 2.23253 9.53776 2.23796C9.14714 2.24338 8.62359 2.25966 7.96712 2.28678C7.31066 2.31391 6.75184 2.36816 6.29069 2.44954C5.82954 2.53092 5.44162 2.63129 5.12695 2.75065C4.58442 2.96766 4.10699 3.28233 3.69466 3.69466C3.28233 4.10699 2.96766 4.58442 2.75065 5.12695C2.63129 5.44162 2.53092 5.82954 2.44954 6.29069C2.36816 6.75184 2.31391 7.31066 2.28678 7.96712C2.25966 8.62359 2.24338 9.14714 2.23796 9.53776C2.23253 9.92839 2.23253 10.5008 2.23796 11.2549C2.24338 12.009 2.24609 12.424 2.24609 12.5C2.24609 12.576 2.24338 12.991 2.23796 13.7451C2.23253 14.4992 2.23253 15.0716 2.23796 15.4622C2.24338 15.8529 2.25966 16.3764 2.28678 17.0329C2.31391 17.6893 2.36816 18.2482 2.44954 18.7093C2.53092 19.1705 2.63129 19.5584 2.75065 19.873C2.96766 20.4156 3.28233 20.893 3.69466 21.3053C4.10699 21.7177 4.58442 22.0323 5.12695 22.2493C5.44162 22.3687 5.82954 22.4691 6.29069 22.5505C6.75184 22.6318 7.31066 22.6861 7.96712 22.7132C8.62359 22.7403 9.14714 22.7566 9.53776 22.762C9.92839 22.7675 10.5008 22.7675 11.2549 22.762C12.009 22.7566 12.424 22.7539 12.5 22.7539C12.576 22.7539 12.991 22.7566 13.7451 22.762C14.4992 22.7675 15.0716 22.7675 15.4622 22.762C15.8529 22.7566 16.3764 22.7403 17.0329 22.7132C17.6893 22.6861 18.2482 22.6318 18.7093 22.5505C19.1705 22.4691 19.5584 22.3687 19.873 22.2493C20.4156 22.0323 20.893 21.7177 21.3053 21.3053C21.7177 20.893 22.0323 20.4156 22.2493 19.873C22.3687 19.5584 22.4691 19.1705 22.5505 18.7093C22.6318 18.2482 22.6861 17.6893 22.7132 17.0329C22.7403 16.3764 22.7566 15.8529 22.762 15.4622C22.7675 15.0716 22.7675 14.4992 22.762 13.7451C22.7566 12.991 22.7539 12.576 22.7539 12.5C22.7539 12.424 22.7566 12.009 22.762 11.2549C22.7675 10.5008 22.7675 9.92839 22.762 9.53776C22.7566 9.14714 22.7403 8.62359 22.7132 7.96712C22.6861 7.31066 22.6318 6.75184 22.5505 6.29069C22.4691 5.82954 22.3687 5.44162 22.2493 5.12695C22.0323 4.58442 21.7177 4.10699 21.3053 3.69466C20.893 3.28233 20.4156 2.96766 19.873 2.75065C19.5584 2.63129 19.1705 2.53092 18.7093 2.44954C18.2482 2.36816 17.6893 2.31391 17.0329 2.28678C16.3764 2.25966 15.8529 2.24338 15.4622 2.23796C15.0716 2.23253 14.4992 2.23253 13.7451 2.23796C12.991 2.24338 12.576 2.24609 12.5 2.24609ZM25 12.5C25 14.9848 24.9729 16.7046 24.9186 17.6595C24.8101 19.9164 24.1374 21.6634 22.9004 22.9004C21.6634 24.1374 19.9164 24.8101 17.6595 24.9186C16.7046 24.9729 14.9848 25 12.5 25C10.0152 25 8.29536 24.9729 7.34049 24.9186C5.08355 24.8101 3.33659 24.1374 2.09961 22.9004C0.86263 21.6634 0.189887 19.9164 0.0813802 17.6595C0.0271267 16.7046 0 14.9848 0 12.5C0 10.0152 0.0271267 8.29536 0.0813802 7.34049C0.189887 5.08355 0.86263 3.33659 2.09961 2.09961C3.33659 0.86263 5.08355 0.189887 7.34049 0.0813802C8.29536 0.0271267 10.0152 0 12.5 0C14.9848 0 16.7046 0.0271267 17.6595 0.0813802C19.9164 0.189887 21.6634 0.86263 22.9004 2.09961C24.1374 3.33659 24.8101 5.08355 24.9186 7.34049C24.9729 8.29536 25 10.0152 25 12.5Z" fill="white"/>
</svg>