<svg id="Capa_1" enable-background="new 0 0 512 512" height="512" viewBox="0 0 512 512" width="512" xmlns="http://www.w3.org/2000/svg"><g><g><g><path d="m139.472 382.577c-81.534-24.536-139.472-101.264-139.472-186.577 0-107.52 88.48-196 196-196 85.313 0 162.041 57.938 186.577 139.472 3.477 11.546-7.469 22.2-18.794 18.647-15.307-4.717-31.391-7.119-47.783-7.119-90.981 0-165 74.019-165 165 0 16.392 2.402 32.476 7.119 47.783 3.539 11.408-7.119 22.241-18.647 18.794z" fill="#2682ff"/></g></g><g><path d="m316 512c-85.313 0-162.041-57.938-186.577-139.472-1.597-5.303-.132-11.06 3.809-14.971 3.896-3.911 9.668-5.332 14.985-3.677 15.307 4.718 31.391 7.12 47.783 7.12 90.981 0 165-74.019 165-165 0-16.392-2.402-32.476-7.119-47.783-1.641-5.288-.22-11.06 3.677-14.985 3.911-3.926 9.712-5.361 14.971-3.809 81.533 24.536 139.471 101.265 139.471 186.577 0 107.52-88.48 196-196 196z" fill="#c6e2e7"/></g><path d="m391 196c0-22.145-3.483-43.516-10.887-64.113-20.597-7.404-41.968-10.887-64.113-10.887-14.399 0-28.5 1.5-42.001 4.501l5.77 23.397-37.868-13.198c-9.901 3.9-19.2 9-28.2 14.399l12.792 33.591-37.092-15.59c-7.8 6.301-15 13.5-21 21.301l16.21 38.569-34.512-14.269c-5.4 8.699-10.199 18.3-14.399 27.9l13.715 39.23-23.914-6.832c-3.001 13.501-4.501 27.602-4.501 42.001 0 22.145 3.483 43.516 10.887 64.113 20.597 7.404 41.968 10.887 64.113 10.887 14.399 0 28.5-1.5 42.001-4.501l-8.778-27.261 41.177 17.062c9.6-4.2 19.2-9 27.9-14.399l-15.916-36.72 40.215 18.419c7.8-6 15-13.2 21.301-21l-19.001-41.354 37.002 17.054c5.4-9 10.499-18.3 14.399-28.2l-17.296-41.829 27.495 9.73c3.001-13.501 4.501-27.602 4.501-42.001z" fill="#7ed8f6"/><path d="m196 391c14.399 0 28.5-1.5 42.001-4.501l-8.778-27.261 41.177 17.062c9.6-4.2 19.2-9 27.9-14.399l-15.916-36.72 40.215 18.419c7.8-6 15-13.2 21.301-21l-19.001-41.354 37.002 17.054c5.4-9 10.499-18.3 14.399-28.2l-17.296-41.829 27.495 9.73c3.001-13.501 4.501-27.602 4.501-42.001 0-22.145-3.483-43.517-10.887-64.113l-248.226 248.226c20.596 7.404 41.968 10.887 64.113 10.887z" fill="#6aa9ff"/><g id="Opacity_2_"><g><path d="m270.399 376.3c-10.499 4.2-21.299 7.8-32.399 10.199l-112.5-112.5c2.399-11.1 5.999-21.899 10.199-32.399z" fill="#2682ff"/></g><g><path d="m322.599 343.599c-7.5 6.901-15.599 12.9-24.3 18.301l-148.2-148.2c5.402-8.701 11.4-16.8 18.301-24.3z" fill="#2682ff"/></g><g><path d="m361.901 298.299c-5.402 8.701-11.4 16.8-18.001 24.3l-154.499-154.499c7.5-6.601 15.599-12.599 24.3-18.001z" fill="#2682ff"/></g><g><path d="m386.499 238.001c-2.399 11.1-5.999 21.899-10.199 32.098l-134.399-134.399c10.199-4.2 20.999-7.8 32.098-10.199z" fill="#2682ff"/></g></g><g fill="#2682ff"><path d="m238.001 386.499c11.1-2.399 21.899-5.999 32.399-10.199l-67.35-67.35-21.299 21.299z"/><path d="m298.299 361.901c8.701-5.402 16.8-11.4 24.3-18.301l-77.098-77.1-21.301 21.3z"/><path d="m343.9 322.599c6.601-7.5 12.599-15.599 18.001-24.3l-74.099-74.101-21.151 21.151z"/><path d="m309.101 202.899 67.2 67.2c4.2-10.199 7.8-20.999 10.199-32.098l-56.25-56.25z"/></g></g></svg>