<svg xmlns="http://www.w3.org/2000/svg" xmlns:xlink="http://www.w3.org/1999/xlink" width="102" height="84" viewBox="0 0 102 84">
  <defs>
    <clipPath id="clip-path">
      <rect id="Rectangle_64" data-name="Rectangle 64" width="102" height="84" transform="translate(135 759)" fill="#fff"/>
    </clipPath>
  </defs>
  <g id="reliable-icon" transform="translate(-135 -759)">
    <g id="Mask_Group_5" data-name="Mask Group 5" clip-path="url(#clip-path)">
      <circle id="Ellipse_1" data-name="Ellipse 1" cx="39" cy="39" r="39" transform="translate(135 760)" fill="#fff"/>
      <g id="Group_7" data-name="Group 7" transform="translate(-90.871 469.168)">
        <path id="Path_1" data-name="Path 1" d="M274.747,316.693a8.649,8.649,0,0,1-5.02-2.151l-5.5-4.36a2.092,2.092,0,0,1,2.6-3.28l5.542,4.39.085.07c.835.725,2.147,1.315,2.456,1.1a8,8,0,0,1,8.086-.683,2.092,2.092,0,0,1-1.872,3.742,3.776,3.776,0,0,0-3.843.387A4.371,4.371,0,0,1,274.747,316.693Z" transform="translate(-4.501 -0.591)" fill="#1763c4"/>
        <path id="Path_2" data-name="Path 2" d="M252.883,349.955a2.08,2.08,0,0,1-1.379-.52l-9.337-8.193a2.092,2.092,0,1,1,2.759-3.144l9.337,8.193a2.092,2.092,0,0,1-1.381,3.664Z" transform="translate(-0.912 -5.675)" fill="#1763c4"/>
        <path id="Path_3" data-name="Path 3" d="M275.516,339.867a8.41,8.41,0,0,1-5.724-2.125c-.09-.088-.2-.192-.337-.313-1.215-1.109-3.249-2.965-2.4-5.14a2.07,2.07,0,0,1,.261-.475l4.976-6.792a2.127,2.127,0,0,1,.186-.221c.415-.428,10.17-10.483,10.855-11.178a2.225,2.225,0,0,1,.27-.232c4.451-3.2,7.647-4.494,14.7-3.652a4.264,4.264,0,0,0,1.624-.443c.137-.131.387-.38.69-.681.567-.565,1.3-1.3,1.917-1.869.88-.823,2.521-2.353,4.041-.857a2.092,2.092,0,0,1-.624,3.406c-.533.445-1.808,1.714-2.384,2.286a11.314,11.314,0,0,1-1.118,1.057,8.117,8.117,0,0,1-4.147,1.292,2.068,2.068,0,0,1-.322-.015c-5.717-.709-8,.07-11.788,2.77-1.265,1.3-9.6,9.883-10.609,10.927l-4.254,5.806c.313.34.744.734.949.922.178.162.334.305.452.422a4.391,4.391,0,0,0,3.953.734c.71-.284,2.907-1.428,7.992-5.893l.089-.077c2.2-2.2,4.387-2.542,6.33-.987a2.12,2.12,0,0,1,.382,2.958,2.062,2.062,0,0,1-2.91.376l-.053-.042a4.192,4.192,0,0,0-.824.686c-.037.038-.076.074-.116.11l-.137.12c-4.095,3.6-7.189,5.828-9.195,6.633A7.355,7.355,0,0,1,275.516,339.867Z" transform="translate(-5.061 -0.396)" fill="#1763c4"/>
        <path id="Path_4" data-name="Path 4" d="M317.526,353.595a2.092,2.092,0,0,1-1.492-3.558c.575-.584,1.04-1.1,1.505-1.623.5-.554,1.007-1.125,1.644-1.772a2.224,2.224,0,0,1,.7-.48l8.788-8.56a2.092,2.092,0,1,1,2.919,3l-9.274,9.033a2.107,2.107,0,0,1-.6.407c-.381.4-.721.785-1.063,1.165-.493.551-1,1.12-1.637,1.765A2.087,2.087,0,0,1,317.526,353.595Z" transform="translate(-12.996 -5.582)" fill="#1763c4"/>
        <path id="Path_5" data-name="Path 5" d="M274.448,379.562h0a6.493,6.493,0,0,1-4.5-1.882,6.8,6.8,0,0,1-1.862-3.931,6.529,6.529,0,0,1-4.029-1.863,6.855,6.855,0,0,1-1.92-3.935,6.542,6.542,0,0,1-3.971-1.858,6.851,6.851,0,0,1-1.922-3.937,6.528,6.528,0,0,1-3.972-1.858c-2.393-2.5-2.538-6.294-.368-8.5l2.656-2.7a2.077,2.077,0,0,1,.6-.844c.474-.4.926-.861,1.406-1.345.515-.521,1.048-1.06,1.652-1.574a2.12,2.12,0,0,1,.341-.238,5.887,5.887,0,0,1,2.851-.725,6.477,6.477,0,0,1,4.5,1.862,6.892,6.892,0,0,1,1.913,3.933,6.529,6.529,0,0,1,3.978,1.862,6.765,6.765,0,0,1,1.864,3.93,6.532,6.532,0,0,1,4.027,1.86,6.743,6.743,0,0,1,1.885,3.935,6.529,6.529,0,0,1,4.009,1.862,6.242,6.242,0,0,1,1.2,7.374,2.081,2.081,0,0,1-.251.353c-.282.321-.573.635-.867.948-.038.041-.078.08-.119.117-.132.12-.266.238-.4.356a3.771,3.771,0,0,0-1.07,1.186,2.08,2.08,0,0,1-.474.75l-3.154,3.209A5.575,5.575,0,0,1,274.448,379.562Zm-1.883-7.449a1.981,1.981,0,0,0,.365,2.63,2.236,2.236,0,0,0,1.519.636h0a1.413,1.413,0,0,0,1.028-.407l2.878-2.928a7.679,7.679,0,0,1,2.041-2.427l.293-.259q.271-.289.536-.582a2.2,2.2,0,0,0-.62-2.231,2.238,2.238,0,0,0-1.514-.631,1.416,1.416,0,0,0-1.027.406,2.091,2.091,0,0,1-3.033-2.88,1.981,1.981,0,0,0-.314-2.684,2.244,2.244,0,0,0-1.519-.635,1.41,1.41,0,0,0-1.026.406h0a2.092,2.092,0,0,1-2.984-2.932,1.98,1.98,0,0,0-.362-2.631,2.237,2.237,0,0,0-1.519-.637,1.423,1.423,0,0,0-1,.375l-.083.081A2.092,2.092,0,0,1,263.3,351.8l.054-.053.076-.074c.5-.51.3-1.678-.492-2.5a2.207,2.207,0,0,0-2.188-.491c-.4.357-.793.753-1.2,1.169-.322.326-.651.658-1,.988a2.113,2.113,0,0,1-.412.6l-3.241,3.294a1.983,1.983,0,0,0,.363,2.632,2.241,2.241,0,0,0,1.519.635,1.414,1.414,0,0,0,1.027-.406,2.092,2.092,0,0,1,2.983,2.933,1.915,1.915,0,0,0,.364,2.631,2.239,2.239,0,0,0,1.519.636,1.41,1.41,0,0,0,1.026-.406,2.092,2.092,0,1,1,2.984,2.932,1.916,1.916,0,0,0,.363,2.632,2.237,2.237,0,0,0,1.519.636,1.416,1.416,0,0,0,1.028-.406,2.091,2.091,0,0,1,2.982,2.933h0Z" transform="translate(-2.369 -6.785)" fill="#1763c4"/>
        <path id="Path_6" data-name="Path 6" d="M303.469,339.773a21.551,21.551,0,0,1-10.5-3.189,2.091,2.091,0,0,1,2.264-3.517h0c.077.049,7.846,4.927,13.284.936A2.092,2.092,0,1,1,311,337.375,12.453,12.453,0,0,1,303.469,339.773Z" transform="translate(-9.171 -4.884)" fill="#1763c4"/>
        <path id="Path_7" data-name="Path 7" d="M293.821,385.087a7.881,7.881,0,0,1-5.576-2.727,2.092,2.092,0,0,1,3.238-2.65c.248.29,1.985,1.687,2.856,1.014a1.777,1.777,0,0,0,.745-1.219,2.839,2.839,0,0,0-.786-2.033c-.7-.838-1.086-1.3-1.3-1.548a2.1,2.1,0,0,1-.412-.418,2.125,2.125,0,0,1,.311-3.023c.474-.371,1.736-1.053,3.2.633.257.3.694.81,1.418,1.683a6.937,6.937,0,0,1,1.727,5.164,5.961,5.961,0,0,1-2.343,4.07A4.93,4.93,0,0,1,293.821,385.087Z" transform="translate(-8.478 -11.302)" fill="#1763c4"/>
        <path id="Path_8" data-name="Path 8" d="M300.638,378.582a6.7,6.7,0,0,1-4.251-1.588c-2.571-2.295-3.533-3.153-2.7-4.724a2.11,2.11,0,0,1,2.373-1.048,2.087,2.087,0,0,1,1.27.94c.189.195.674.668,1.839,1.709.013.011,1.334.971,2.277.243a2.225,2.225,0,0,0,.885-1.508,2.587,2.587,0,0,0-.679-1.928,12.856,12.856,0,0,0-2.318-2.374,2.092,2.092,0,0,1,1.336-3.952c.366.094,1.478.377,4.2,3.651a6.753,6.753,0,0,1,1.62,5.058,6.37,6.37,0,0,1-2.482,4.36A5.418,5.418,0,0,1,300.638,378.582Z" transform="translate(-9.396 -10.038)" fill="#1763c4"/>
        <path id="Path_9" data-name="Path 9" d="M308.155,372.289A6.7,6.7,0,0,1,303.9,370.7c-2.5-2.232-3.706-3.267-3.716-3.276a2.092,2.092,0,0,1,2.723-3.177s1.227,1.052,3.779,3.332c.011.01,1.334.969,2.275.241a2.222,2.222,0,0,0,.885-1.506,2.591,2.591,0,0,0-.679-1.931c-1.206-1.452-1.708-1.99-1.888-2.174a2.093,2.093,0,0,1,.646-3.754c1.438-.376,2.019.316,4.459,3.255a6.749,6.749,0,0,1,1.619,5.06,6.366,6.366,0,0,1-2.482,4.357A5.4,5.4,0,0,1,308.155,372.289Z" transform="translate(-10.386 -9.071)" fill="#1763c4"/>
        <path id="Path_10" data-name="Path 10" d="M315.463,364.628a6.7,6.7,0,0,1-4.252-1.588,22.754,22.754,0,0,1-3.312-3.312,2.092,2.092,0,0,1,3.441-2.379A26.528,26.528,0,0,0,314,359.921c.011.009,1.334.969,2.275.241a2.217,2.217,0,0,0,.885-1.506,2.588,2.588,0,0,0-.678-1.929,36.942,36.942,0,0,0-3.656-3.9,2.092,2.092,0,0,1,2.737-3.164,39.9,39.9,0,0,1,4.136,4.39,6.747,6.747,0,0,1,1.619,5.058,6.369,6.369,0,0,1-2.482,4.358A5.411,5.411,0,0,1,315.463,364.628Z" transform="translate(-11.708 -7.567)" fill="#1763c4"/>
        <path id="Path_11" data-name="Path 11" d="M266.942,369.591a2.092,2.092,0,0,1-1.509-3.54l6.137-6.395a2.092,2.092,0,0,1,3.018,2.9l-6.137,6.395A2.088,2.088,0,0,1,266.942,369.591Z" transform="translate(-4.734 -9.177)" fill="#1763c4"/>
        <path id="Path_12" data-name="Path 12" d="M259.607,363.172a2.092,2.092,0,0,1-1.509-3.54l6.138-6.394a2.092,2.092,0,1,1,3.018,2.9l-6.137,6.394A2.09,2.09,0,0,1,259.607,363.172Z" transform="translate(-3.535 -8.128)" fill="#1763c4"/>
        <path id="Path_13" data-name="Path 13" d="M274.277,376.925a2.091,2.091,0,0,1-1.509-3.54l6.138-6.393a2.091,2.091,0,1,1,3.017,2.9l-6.137,6.393A2.09,2.09,0,0,1,274.277,376.925Z" transform="translate(-5.932 -10.375)" fill="#1763c4"/>
        <path id="Path_14" data-name="Path 14" d="M315.577,354.117a2.086,2.086,0,0,1-1.453-.587l-7.631-7.377a2.092,2.092,0,1,1,2.907-3.008l7.631,7.376a2.092,2.092,0,0,1-1.454,3.6Z" transform="translate(-11.431 -6.489)" fill="#1763c4"/>
        <path id="Path_15" data-name="Path 15" d="M237.962,332.211a2.091,2.091,0,0,1-1.557-3.487l22.57-25.194a2.092,2.092,0,0,1,3.117,2.791l-22.571,25.194A2.085,2.085,0,0,1,237.962,332.211Z" transform="translate(0)" fill="#1763c4"/>
        <path id="Path_16" data-name="Path 16" d="M334.723,332.365a2.088,2.088,0,0,1-1.512-.645l-23.357-24.407a2.092,2.092,0,1,1,3.022-2.892l23.358,24.407a2.091,2.091,0,0,1-1.511,3.537Z" transform="translate(-11.989 -0.154)" fill="#1763c4"/>
      </g>
    </g>
  </g>
</svg>
