<svg id="Capa_1" enable-background="new 0 0 512.737 512.737" height="512" viewBox="0 0 512.737 512.737" width="512" xmlns="http://www.w3.org/2000/svg"><g><g><path d="m205.326 145.996v-27.053c0-2.326.702-4.598 2.015-6.519l38.4-56.197c9.619-14.077 6.005-33.285-8.072-42.904-14.076-9.619-33.285-6.005-42.904 8.072l-42.898 62.78c-5.394 7.894-8.28 17.233-8.28 26.794v86.698 73.128l67.074-45.561z" fill="#ffefe7"/><g><g id="XMLID_148_"><g><path d="m284.19 235.801 17.65-90.05-69.09 57.89.05.32c7.28-1.13 14.94.83 20.9 5.9zm40.41-137.7.76-.32c3.48-2.58 7.3-4.74 11.37-6.41s8.39-2.84 12.89-3.46c15.73-2.16 29.41 10.81 28.1 26.63l-7.22 87.27c-.31 3.83.4 7.66 2.07 11.12l13.36 27.62c17.75 36.71 18.35 79.39 1.65 116.59l-40.96 91.21v45.882c0 6.075-4.933 10.995-11.008 10.979l-163.452-.432c-6.052-.016-10.95-4.927-10.95-10.979v-37.6l-32.57-40.94c-13.84-17.39-22.16-38.51-23.9-60.66l-6.85-87.03c-1.47-18.63 6.18-36.83 20.52-48.83l157.96-132.2c5.78-4.85 12.82-7.21 19.82-7.21 8.81 0 17.57 3.75 23.67 11.04 2 2.39 3.58 5 4.74 7.73z" fill="#ffefe7"/></g><g><path d="m342.606 89.359c-2.005.557-3.973 1.231-5.876 2.012-4.07 1.67-7.89 3.83-11.37 6.41l-.76.32c-1.16-2.73-2.74-5.34-4.74-7.73-1.538-1.838-3.245-3.449-5.079-4.833l-13.817 60.948.877-.735-6.119 31.22 33.16-27.785c17.813-14.936 22.795-39.593 13.724-59.827z" fill="#ffe0d1"/></g><path d="m171.511 200.197 35.845-24.061-2.029-30.14v-19.557l-23.068 19.306c-4.917 4.115-12.402.619-12.402-5.793v-22.599c0-9.562 2.886-18.9 8.28-26.795l42.898-62.78c4.629-6.774 11.48-11.117 18.91-12.736-.727-.601-1.482-1.177-2.276-1.72-14.076-9.619-33.285-6.005-42.904 8.072l-42.898 62.78c-5.394 7.895-8.28 17.233-8.28 26.795v86.698 2.529h27.924z" fill="#ffd1c2"/><path d="m319.86 90.371c10.95 13.07 9.23 32.54-3.83 43.49l-83.28 69.78.05.32c-4.73.72-9.3 2.76-13.13 6.1l-40.19 34.98-78.6-.85c3.38-9.78 9.37-18.62 17.53-25.45l157.96-132.2c5.78-4.85 12.82-7.21 19.82-7.21 8.81 0 17.57 3.75 23.67 11.04z" fill="#ffefe7"/><g><path d="m214.788 504.78c-6.052-.016-10.95-4.927-10.95-10.979v-20.637c0-10.983-3.723-21.643-10.561-30.238l-22.009-27.665c-13.84-17.39-22.16-38.51-23.9-60.66l-6.85-87.03c-1.47-18.63 6.18-36.83 20.52-48.83l156.432-130.92c-5.886-5.612-13.563-8.489-21.28-8.489-7 0-14.04 2.36-19.82 7.21l-157.96 132.2c-14.34 12-21.99 30.2-20.52 48.83l6.85 87.03c1.74 22.15 10.06 43.27 23.9 60.66l32.57 40.94v37.6c0 6.052 4.898 10.963 10.95 10.979h42.628z" fill="#ffe0d1"/></g><g><g id="XMLID_149_"><g><path d="m329.427 314.799c7.051-8.291 10.934-18.842 10.934-29.708 0-13.488-5.89-26.228-16.152-34.945l-36.709-31.226-3.309 16.882-30.49-25.94c-4.192-3.566-9.226-5.587-14.376-6.083v128.342c0 21.195 9.303 41.323 25.448 55.056 8.284 7.046 18.832 10.927 29.699 10.927 13.489 0 26.231-5.89 34.956-16.155 7.05-8.292 10.933-18.839 10.933-29.697 0-12.806-5.32-24.936-14.651-33.606 1.301-1.212 2.555-2.481 3.717-3.847z" fill="#ffe0d1"/></g><path d="m325.36 285.091c0 7.07-2.42 14.18-7.36 19.99-4.95 5.82-11.59 9.35-18.59 10.48l-.16.19-45.55-38.74c-9.83-8.36-24.3-8.28-34.03.2l-40.19 34.98v-67.15l40.19-34.98c3.83-3.34 8.4-5.38 13.13-6.1 7.28-1.13 14.94.83 20.9 5.9l30.49 25.94 30.3 25.77c7.18 6.1 10.87 14.78 10.87 23.52z" fill="#ffefe7"/><path d="m317.763 305.336c-1.751-3.157-4.079-6.062-6.993-8.537l-30.3-25.77-30.49-25.94c-5.96-5.07-13.62-7.03-20.9-5.9-4.73.72-9.3 2.76-13.13 6.1l-29.226 25.437c-4.602 4.005-7.243 9.807-7.243 15.907v25.558l40.19-34.98c9.73-8.48 24.2-8.56 34.03-.2l45.55 38.74.16-.19c6.892-1.113 13.427-4.563 18.352-10.225z" fill="#ffe0d1"/></g></g></g></g><g><g id="XMLID_152_"><g><path d="m325.36 352.251c0 7.07-2.42 14.17-7.36 19.98-11.04 12.99-30.53 14.56-43.51 3.52l-37.63-32.01-11.17 11.17-46.21-42.72 40.19-34.98c9.73-8.48 24.2-8.56 34.03-.2l60.79 51.71c7.18 6.11 10.87 14.79 10.87 23.53z" fill="#ffefe7"/></g></g></g></g><g><path d="m379.323 209.665c-1.086-2.247-1.552-4.748-1.346-7.234l7.221-87.271c.812-9.822-2.825-19.343-9.979-26.122-7.152-6.779-16.863-9.898-26.619-8.562-7.51 1.03-14.778 3.481-21.365 7.175-.52-.713-1.056-1.417-1.628-2.1-13.591-16.215-37.837-18.352-54.05-4.767l-58.731 49.153v-10.996c0-.82.244-1.61.707-2.287l12.181-17.825c2.337-3.42 1.459-8.087-1.961-10.424-3.422-2.339-8.088-1.459-10.424 1.961l-12.181 17.825c-2.173 3.18-3.322 6.897-3.322 10.75v23.55l-46.74 39.118v-70.641c0-8.085 2.411-15.887 6.973-22.562l42.898-62.78c3.522-5.154 8.84-8.628 14.975-9.782s12.351.149 17.506 3.672c5.154 3.521 8.628 8.84 9.782 14.975 1.154 6.134-.149 12.352-3.671 17.505l-7.871 11.52c-2.337 3.421-1.458 8.087 1.961 10.424 3.418 2.337 8.087 1.458 10.423-1.961l7.871-11.52c5.782-8.462 7.923-18.669 6.028-28.741s-7.599-18.805-16.061-24.587c-8.461-5.782-18.668-7.923-28.742-6.028-10.072 1.895-18.804 7.599-24.586 16.061l-42.898 62.78c-6.272 9.18-9.588 19.908-9.588 31.025v83.195l-22.494 18.825c-16.167 13.531-24.832 34.157-23.179 55.174l4.775 60.706c.309 3.93 3.593 6.913 7.469 6.912.197 0 .396-.008.596-.023 4.129-.324 7.214-3.936 6.889-8.064l-4.775-60.706c-1.273-16.188 5.401-32.074 17.853-42.495l157.968-132.208c9.876-8.277 24.646-6.975 32.923 2.901 8.276 9.877 6.975 24.646-2.902 32.923l-82.229 68.911c-5.108 1.235-9.998 3.692-14.236 7.379l-40.192 34.984c-3.124 2.72-3.452 7.457-.733 10.581 2.72 3.124 7.456 3.451 10.582.733l40.192-34.984c6.99-6.087 17.189-6.145 24.25-.139l60.788 51.705c4.755 4.045 7.65 9.699 8.152 15.921.503 6.223-1.448 12.268-5.493 17.022-2.957 3.476-6.865 5.976-11.198 7.254l-42.53-36.175c-12.756-10.851-31.184-10.745-43.817.25l-40.192 34.984c-3.124 2.72-3.452 7.457-.733 10.581 2.72 3.125 7.456 3.452 10.582.733l40.192-34.984c6.99-6.086 17.189-6.146 24.25-.139l60.788 51.705c4.755 4.045 7.65 9.699 8.152 15.921.503 6.223-1.448 12.268-5.493 17.022-4.044 4.755-9.698 7.65-15.92 8.152-6.231.501-12.269-1.449-17.022-5.493l-37.628-32.006c-2.978-2.533-7.399-2.354-10.163.409l-11.167 11.167c-2.929 2.93-2.929 7.678 0 10.607 2.929 2.928 7.678 2.928 10.606 0l6.275-6.275 32.357 27.523c7.001 5.956 15.706 9.146 24.798 9.146 1.045 0 2.097-.043 3.15-.128 10.215-.824 19.498-5.578 26.139-13.385s9.844-17.732 9.019-27.948c-.824-10.216-5.578-19.499-13.385-26.14l-5.591-4.755c3.737-2.171 7.115-4.969 9.957-8.31 13.708-16.115 11.75-40.379-4.366-54.088l-26.951-22.924 16.289-83.137 12.157-10.188c7.855-6.582 12.677-15.83 13.577-26.04.366-4.156.053-8.265-.877-12.211 5.222-3.115 11.047-5.188 17.094-6.016 5.23-.72 10.431.955 14.265 4.588 3.833 3.633 5.782 8.734 5.347 13.998l-7.221 87.271c-.427 5.154.539 10.342 2.791 15l13.355 27.621c16.827 34.803 17.396 74.989 1.561 110.255l-8.587 19.124c-1.697 3.779-.009 8.218 3.77 9.914.998.448 2.041.66 3.068.66 2.862 0 5.597-1.648 6.846-4.43l8.587-19.124c17.656-39.319 17.021-84.125-1.74-122.929zm-100.028 12.121-20.735-17.637c-2.609-2.219-5.457-3.972-8.442-5.275l40.279-33.754z"/><path d="m368.901 398.734c-3.779-1.696-8.217-.011-9.914 3.77l-19.208 42.775c-.434.966-.658 2.013-.658 3.072v56.886c0 4.143 3.357 7.5 7.5 7.5s7.5-3.357 7.5-7.5v-55.279l18.55-41.31c1.697-3.778.008-8.217-3.77-9.914z"/><path d="m325.358 46.674c4.143 0 7.5-3.357 7.5-7.5v-31.674c0-4.143-3.357-7.5-7.5-7.5s-7.5 3.357-7.5 7.5v31.674c0 4.142 3.358 7.5 7.5 7.5z"/><path d="m357.376 54.134c1.156.644 2.407.948 3.643.948 2.633 0 5.188-1.389 6.56-3.852l15.411-27.672c2.015-3.619.715-8.187-2.903-10.202-3.619-2.015-8.187-.715-10.202 2.903l-15.411 27.672c-2.016 3.62-.716 8.187 2.902 10.203z"/><path d="m421.398 51.654c-2.181-3.521-6.802-4.607-10.325-2.427l-26.928 16.677c-3.521 2.181-4.608 6.804-2.427 10.325 1.419 2.291 3.872 3.552 6.383 3.552 1.348 0 2.712-.363 3.942-1.125l26.928-16.677c3.522-2.18 4.609-6.803 2.427-10.325z"/><path d="m134.505 410.592c-11.763-14.782-19.274-32.519-21.722-51.292-.536-4.106-4.295-6.994-8.407-6.468-4.107.536-7.003 4.3-6.467 8.407 2.8 21.479 11.396 41.775 24.858 58.692l30.944 38.889v45.929c0 4.143 3.358 7.5 7.5 7.5s7.5-3.357 7.5-7.5v-48.549c0-1.696-.575-3.343-1.631-4.67z"/></g></g></svg>