<svg id="Capa_1" enable-background="new 0 0 512 512" height="512" viewBox="0 0 512 512" width="512" xmlns="http://www.w3.org/2000/svg"><g><g><path d="m438.437 186.26-137.392 200.719c-4.367 6.38-13.08 8.012-19.461 3.645l-156.073-106.833c-6.38-4.367-8.012-13.08-3.645-19.461l137.393-200.718c4.367-6.38 13.08-8.012 19.461-3.645l156.073 106.832c6.379 4.367 8.011 13.08 3.644 19.461z" fill="#c8ea73"/></g><path d="m434.792 166.799-156.073-106.832c-6.38-4.367-15.093-2.735-19.461 3.645l-5.49 8.021 147.146 100.722c6.38 4.367 8.012 13.08 3.645 19.461l-131.901 192.697 8.927 6.11c6.38 4.367 15.093 2.736 19.46-3.645l137.392-200.718c4.367-6.381 2.735-15.094-3.645-19.461z" fill="#aad880"/><path d="m478.441 192.285-133.738-133.738c-5.467-5.467-14.332-5.467-19.799 0l-19.611 19.611-.814 15.224-16.057 1.648-163.69 163.69h307.074l46.635-46.635c5.467-5.469 5.467-14.333 0-19.8z" fill="#c8ea73"/><g fill="#aad880"><path d="m478.441 192.285-133.738-133.738c-5.467-5.467-14.332-5.467-19.799 0l-7.228 7.228 126.51 126.51c5.467 5.467 5.467 14.332 0 19.799l-46.635 46.635h34.256l46.635-46.635c5.466-5.468 5.466-14.332-.001-19.799z"/><path d="m357.86 258.718c.297-3.804.31-7.574-.658-11.198-2.094-7.842-8.616-14.06-12.773-21.251-4.018-6.95-6.084-15.734-12.031-21.68-5.946-5.946-14.73-8.012-21.68-12.03-7.191-4.158-13.408-10.68-21.25-12.773-7.955-2.124-16.613.46-24.792.46-4.553 0-9.254-.799-13.9-1.141-1.741-.128-2.543-2.221-1.308-3.456l54.436-54.436c1.381-1.381 3.434-1.854 5.272-1.195 26.75 9.585 57.81 3.665 79.236-17.761l-43.709-43.709c-5.467-5.467-14.332-5.467-19.799 0l-200.172 200.17z"/><path d="m478.441 192.285-43.71-43.71c-21.378 21.378-27.317 52.345-17.824 79.054.656 1.845.194 3.9-1.19 5.285l-25.805 25.805h41.894l46.635-46.635c5.467-5.468 5.467-14.332 0-19.799z"/></g><path d="m478.441 192.285-43.71-43.71c-5.99 5.99-10.766 12.733-14.332 19.924l23.786 23.786c5.467 5.467 5.467 14.332 0 19.799l-46.635 46.635h34.256l46.635-46.635c5.467-5.468 5.467-14.332 0-19.799z" fill="#93c8a5"/><g><path d="m368.488 116.588c7.191-3.566 13.934-8.342 19.924-14.331l-43.709-43.709c-5.467-5.467-14.332-5.467-19.799 0l-7.228 7.228z" fill="#93c8a5"/></g><g><circle cx="168.547" cy="228.649" fill="#ffe07d" r="54.329"/></g><g><circle cx="97.061" cy="112.019" fill="#ffe07d" r="54.329"/></g><g><path d="m191.733 179.511c3.324 7.033 5.191 14.89 5.191 23.186 0 30.005-24.324 54.329-54.329 54.329-8.296 0-16.153-1.867-23.186-5.191 8.7 18.406 27.428 31.143 49.138 31.143 30.005 0 54.329-24.324 54.329-54.329 0-21.709-12.738-40.437-31.143-49.138z" fill="#ffd064"/></g><g><path d="m120.247 62.882c3.324 7.033 5.191 14.89 5.191 23.186 0 30.005-24.324 54.329-54.329 54.329-8.296 0-16.153-1.867-23.186-5.191 8.7 18.406 27.428 31.143 49.138 31.143 30.005 0 54.329-24.324 54.329-54.329 0-21.71-12.738-40.438-31.143-49.138z" fill="#ffd064"/></g><g><circle cx="199.818" cy="33.229" fill="#ffe07d" r="33.229"/></g><g><path d="m210.7 1.833c1.182 3.41 1.833 7.069 1.833 10.882 0 18.352-14.877 33.229-33.229 33.229-3.813 0-7.472-.651-10.882-1.833 4.507 13.006 16.858 22.347 31.397 22.347 18.352 0 33.229-14.877 33.229-33.229-.001-14.539-9.342-26.889-22.348-31.396z" fill="#ffd064"/></g><g><path d="m97.061 142.088c-16.581 0-30.07-13.489-30.07-30.069s13.489-30.069 30.07-30.069c16.58 0 30.069 13.489 30.069 30.069s-13.489 30.069-30.069 30.069zm0-44.892c-8.174 0-14.824 6.65-14.824 14.823s6.65 14.823 14.824 14.823 14.823-6.65 14.823-14.823-6.649-14.823-14.823-14.823z" fill="#ffd064"/></g><path d="m83.656 138.924c4.039 2.021 8.59 3.164 13.405 3.164 16.58 0 30.069-13.489 30.069-30.069 0-4.815-1.144-9.366-3.165-13.405-4.712 19.924-20.385 35.597-40.309 40.31z" fill="#ebb044"/><g><path d="m168.546 258.718c-16.58 0-30.069-13.489-30.069-30.069s13.489-30.07 30.069-30.07c16.581 0 30.07 13.489 30.07 30.07s-13.489 30.069-30.07 30.069zm0-44.893c-8.174 0-14.823 6.65-14.823 14.824s6.649 14.823 14.823 14.823 14.824-6.65 14.824-14.823c0-8.174-6.65-14.824-14.824-14.824z" fill="#ffd064"/></g><path d="m155.142 255.554c4.039 2.021 8.59 3.165 13.405 3.165 16.581 0 30.07-13.489 30.07-30.069 0-4.815-1.144-9.366-3.165-13.405-4.713 19.923-20.387 35.596-40.31 40.309z" fill="#ebb044"/><g><path d="m415.912 512h-356.815c-16.369 0-29.638-13.27-29.638-29.638v-217.873c0-16.369 13.27-29.638 29.638-29.638h356.815c16.369 0 29.638 13.27 29.638 29.638v217.872c0 16.369-13.269 29.639-29.638 29.639z" fill="#ce9875"/></g><path d="m415.912 234.851h-29.408v188.464c0 16.369-13.27 29.638-29.638 29.638h-327.408v29.408c0 16.369 13.27 29.638 29.638 29.638h356.815c16.369 0 29.638-13.27 29.638-29.638v-217.872c.001-16.368-13.268-29.638-29.637-29.638z" fill="#c6865c"/><g><path d="m404.895 301.933c-4.21 0-7.623-3.413-7.623-7.623v-.508c0-5.884-4.787-10.672-10.672-10.672h-.508c-4.21 0-7.623-3.413-7.623-7.623s3.412-7.623 7.623-7.623h.508c14.291 0 25.918 11.627 25.918 25.918v.508c-.001 4.21-3.413 7.623-7.623 7.623z" fill="#eab680"/></g><g><path d="m404.895 431.663c-4.21 0-7.623-3.413-7.623-7.623v-36.364c0-4.21 3.412-7.623 7.623-7.623s7.623 3.413 7.623 7.623v36.364c-.001 4.21-3.413 7.623-7.623 7.623zm0-64.865c-4.21 0-7.623-3.413-7.623-7.623v-36.364c0-4.21 3.412-7.623 7.623-7.623s7.623 3.413 7.623 7.623v36.364c-.001 4.21-3.413 7.623-7.623 7.623z" fill="#ce9875"/></g><g><path d="m386.6 478.968h-.508c-4.21 0-7.623-3.413-7.623-7.623s3.412-7.623 7.623-7.623h.508c5.885 0 10.672-4.788 10.672-10.672v-.508c0-4.21 3.412-7.623 7.623-7.623s7.623 3.413 7.623 7.623v.508c-.001 14.291-11.627 25.918-25.918 25.918z" fill="#ce9875"/></g><g><path d="m356.679 478.968h-37.527c-4.21 0-7.623-3.413-7.623-7.623s3.412-7.623 7.623-7.623h37.527c4.21 0 7.623 3.413 7.623 7.623s-3.413 7.623-7.623 7.623zm-66.941 0h-37.527c-4.21 0-7.623-3.413-7.623-7.623s3.412-7.623 7.623-7.623h37.527c4.21 0 7.623 3.413 7.623 7.623s-3.412 7.623-7.623 7.623zm-66.94 0h-37.527c-4.21 0-7.623-3.413-7.623-7.623s3.412-7.623 7.623-7.623h37.527c4.21 0 7.623 3.413 7.623 7.623s-3.413 7.623-7.623 7.623zm-66.94 0h-37.527c-4.21 0-7.623-3.413-7.623-7.623s3.412-7.623 7.623-7.623h37.527c4.21 0 7.623 3.413 7.623 7.623-.001 4.21-3.413 7.623-7.623 7.623z" fill="#ce9875"/></g><g><path d="m88.917 478.968h-.508c-14.291 0-25.918-11.627-25.918-25.918v-.508c0-4.21 3.412-7.623 7.623-7.623 4.21 0 7.623 3.413 7.623 7.623v.508c0 5.884 4.787 10.672 10.672 10.672h.508c4.21 0 7.623 3.413 7.623 7.623s-3.412 7.623-7.623 7.623z" fill="#eab680"/></g><path d="m386.599 267.884h-.096v15.246h.096c5.885 0 10.672 4.788 10.672 10.672v.508c0 4.21 3.412 7.623 7.623 7.623s7.623-3.413 7.623-7.623v-.508c0-14.291-11.626-25.918-25.918-25.918z" fill="#ce9875"/><g><path d="m70.114 431.663c-4.21 0-7.623-3.413-7.623-7.623v-36.364c0-4.21 3.412-7.623 7.623-7.623 4.21 0 7.623 3.413 7.623 7.623v36.364c0 4.21-3.413 7.623-7.623 7.623zm0-64.865c-4.21 0-7.623-3.413-7.623-7.623v-36.364c0-4.21 3.412-7.623 7.623-7.623 4.21 0 7.623 3.413 7.623 7.623v36.364c0 4.21-3.413 7.623-7.623 7.623z" fill="#eab680"/></g><g><path d="m70.114 301.933c-4.21 0-7.623-3.413-7.623-7.623v-.508c0-14.291 11.627-25.918 25.918-25.918h.508c4.21 0 7.623 3.413 7.623 7.623s-3.412 7.623-7.623 7.623h-.508c-5.885 0-10.672 4.788-10.672 10.672v.508c0 4.21-3.413 7.623-7.623 7.623z" fill="#eab680"/></g><g><path d="m356.678 283.129h-37.527c-4.21 0-7.623-3.413-7.623-7.623s3.412-7.623 7.623-7.623h37.527c4.21 0 7.623 3.413 7.623 7.623s-3.413 7.623-7.623 7.623zm-66.941 0h-37.527c-4.21 0-7.623-3.413-7.623-7.623s3.412-7.623 7.623-7.623h37.527c4.21 0 7.623 3.413 7.623 7.623s-3.412 7.623-7.623 7.623zm-66.94 0h-37.527c-4.21 0-7.623-3.413-7.623-7.623s3.412-7.623 7.623-7.623h37.527c4.21 0 7.623 3.413 7.623 7.623s-3.413 7.623-7.623 7.623zm-66.94 0h-37.527c-4.21 0-7.623-3.413-7.623-7.623s3.412-7.623 7.623-7.623h37.527c4.21 0 7.623 3.413 7.623 7.623s-3.413 7.623-7.623 7.623z" fill="#eab680"/></g><g><path d="m453.432 411.249h-106.68c-7.18 0-13-5.82-13-13v-51.475c0-7.18 5.82-13 13-13h106.68c7.18 0 13 5.82 13 13v51.475c0 7.18-5.821 13-13 13z" fill="#c6865c"/></g><path d="m453.432 333.774h-25.494v25.981c0 7.18-5.82 13-13 13h-81.186v25.494c0 7.18 5.82 13 13 13h106.68c7.18 0 13-5.82 13-13v-51.475c0-7.18-5.821-13-13-13z" fill="#b16e3d"/><g><circle cx="368.27" cy="372.511" fill="#f9f6f9" r="10.23"/></g><path d="m88.409 478.968h.508c4.21 0 7.623-3.413 7.623-7.623s-3.412-7.623-7.623-7.623h-.508c-5.885 0-10.672-4.788-10.672-10.672v-.096h-15.246v.096c0 14.291 11.627 25.918 25.918 25.918z" fill="#ce9875"/></g></svg>