<svg height="512" viewBox="0 0 512 512" width="512" xmlns="http://www.w3.org/2000/svg"><g id="Flat"><path d="m380 488h-356v-64h328a72 72 0 0 0 72-72v-144a72 72 0 0 0 -72-72h-224v48l-104-80 104-80v48h252a108 108 0 0 1 108 108v200a108 108 0 0 1 -108 108z" fill="#a0cc00"/><path d="m24 232h208v208h-208z" fill="#fc7"/><path d="m232 232h128v208h-128z" fill="#fcb73f"/><path d="m104 232h48v48h-48z" fill="#fcb73f"/><path d="m72 312h112v96h-112z" fill="#f2e368"/><g fill="#808080"><path d="m96 336h32v16h-32z"/><path d="m128 368h32v16h-32z"/><path d="m320 400h16v16h-16z"/><path d="m288 400h16v16h-16z"/><path d="m256 400h16v16h-16z"/></g></g></svg>