<svg xmlns="http://www.w3.org/2000/svg" width="18" height="25" viewBox="0 0 18 25">
    <g fill="none" fill-rule="evenodd">
        <g fill="#10D1B1">
            <g>
                <g>
                    <g>
                        <g>
                            <g>
                                <path d="M7.51 6.733l7.715 6.509c.405.342.457.948.114 1.353-.182.217-.45.342-.734.342h-1.608l-.072.002 4.514 7.818c.244.423.099.964-.324 1.208-.423.244-.963.099-1.207-.324l-4.541-7.864-1.29 1.78c-.324.448-.95.547-1.396.223-.24-.173-.39-.442-.41-.736L7.51 6.733zM5.13 9.908c.27.253.304.665.09.957l-.055.064-1.479 1.587c-.272.292-.73.308-1.022.035-.27-.253-.304-.665-.09-.956l.055-.065 1.479-1.587c.272-.292.73-.308 1.022-.035zm9.561-4.023c.071.364-.145.717-.49.826l-.081.021-2.13.414c-.391.076-.77-.18-.847-.572-.07-.364.145-.717.49-.826l.082-.021 2.129-.414c.392-.076.771.18.847.572zM1.925 3.828l.079.031 1.965.917c.362.168.519.599.35.96-.157.336-.539.495-.882.381l-.079-.03-1.965-.917c-.362-.17-.519-.6-.35-.961.157-.336.539-.495.882-.381zm6.55-3.74c.369.046.638.36.636.722l-.006.084-.264 2.153c-.049.396-.41.678-.806.63-.368-.046-.637-.36-.635-.722l.006-.084L7.67.718c.049-.396.41-.678.806-.63z" transform="translate(-122 -4314) translate(0 4053) translate(77 134) translate(0 84) translate(32 32) translate(13 11)"/>
                            </g>
                        </g>
                    </g>
                </g>
            </g>
        </g>
    </g>
</svg>
